<svg width="35" height="35" viewBox="0 0 35 35" fill="none" xmlns="http://www.w3.org/2000/svg">
<path d="M0 17.2737C0 7.76622 7.80099 0.0697021 17.4478 0.0697021C27.0945 0.0697021 34.8955 7.76622 34.8955 17.2737C34.8955 26.7637 27.0945 34.4777 17.4478 34.4777C7.80099 34.4777 0 26.7637 0 17.2737Z" fill="#F57D1F"/>
<path d="M18.3011 26.5374H22.0971V27.5647V29.4105C22.0971 29.4105 22.2886 30.2637 22.9677 30.2637H23.8035C24.4826 30.2637 24.6742 29.4105 24.6742 29.4105V27.913V27.5647V26.5374C26.8682 26.3284 26.8856 24.6045 26.8856 24.6045V16.9777C26.8856 16.6991 26.816 15.4976 26.816 15.4976L26.2762 9.42045C26.1891 7.67916 24.8831 7.27866 24.8831 7.27866C22.0971 5.86821 19.4329 5.64185 19.4329 5.64185H17.9702H16.9254H15.4453C15.4453 5.64185 12.7812 5.86821 10.0125 7.29607C10.0125 7.29607 8.68911 7.69657 8.60205 9.43787L8.07966 15.515C8.07966 15.515 8.01001 16.6991 8.01001 16.9951V24.6219C8.01001 24.6219 8.04484 26.3458 10.2215 26.5548V27.5821V27.9304V29.4279C10.2215 29.4279 10.413 30.2811 11.0921 30.2811H11.9105C12.5896 30.2811 12.7812 29.4279 12.7812 29.4279V27.5821V26.5548H16.5772H18.3011V26.5374Z" fill="white"/>
<path d="M10.6741 22.7065C11.3707 22.7065 11.9627 22.1493 11.9627 21.4528C11.9627 20.7389 11.3707 20.1816 10.6741 20.1816C9.9602 20.1816 9.36816 20.7389 9.36816 21.4528C9.36816 22.1493 9.9602 22.7065 10.6741 22.7065Z" fill="#F57D1F"/>
<path d="M24.2214 22.7065C23.5075 22.7065 22.9329 22.1493 22.9329 21.4528C22.9329 20.7389 23.5249 20.1816 24.2214 20.1816C24.9179 20.1816 25.5274 20.7389 25.5274 21.4528C25.51 22.1493 24.9179 22.7065 24.2214 22.7065Z" fill="#F57D1F"/>
<path d="M18.5274 16.9428H24.3607C25.4577 16.9428 25.5622 15.689 25.5622 15.689C25.5622 15.689 25.301 13.0249 25.1617 11.7189C25.005 10.4129 23.8383 10.4826 23.8383 10.4826H18.4925H16.3856H11.0398C11.0398 10.4826 9.87313 10.4129 9.71642 11.7189C9.57711 13.0075 9.31592 15.689 9.31592 15.689C9.31592 15.689 9.4204 16.9428 10.5174 16.9428H16.3333H18.5274Z" fill="#F57D1F"/>
<path d="M21.5747 9.71648C22.1493 9.71648 22.602 9.26374 22.602 8.70653C22.602 8.18414 22.1667 7.71399 21.5747 7.71399H13.3035C12.7463 7.71399 12.2936 8.16673 12.2936 8.70653C12.2936 9.28115 12.7463 9.71648 13.3035 9.71648H21.5747Z" fill="#F57D1F"/>
</svg>
