<svg width="35" height="35" viewBox="0 0 35 35" fill="none" xmlns="http://www.w3.org/2000/svg">
<path d="M0 17.2736C0 7.76616 7.80099 0.0696411 17.4478 0.0696411C27.0945 0.0696411 34.8955 7.76616 34.8955 17.2736C34.8955 26.7637 27.0945 34.4776 17.4478 34.4776C7.80099 34.4776 0 26.7637 0 17.2736Z" fill="#201658"/>
<path d="M18.3011 26.5373H22.0971V27.5647V29.4104C22.0971 29.4104 22.2886 30.2637 22.9677 30.2637H23.8035C24.4826 30.2637 24.6742 29.4104 24.6742 29.4104V27.9129V27.5647V26.5373C26.8682 26.3284 26.8856 24.6045 26.8856 24.6045V16.9776C26.8856 16.699 26.816 15.4975 26.816 15.4975L26.2762 9.42039C26.1891 7.6791 24.8831 7.2786 24.8831 7.2786C22.0971 5.86815 19.4329 5.64178 19.4329 5.64178H17.9702H16.9254H15.4453C15.4453 5.64178 12.7812 5.86815 10.0125 7.29601C10.0125 7.29601 8.68911 7.69651 8.60205 9.4378L8.07966 15.5149C8.07966 15.5149 8.01001 16.699 8.01001 16.995V24.6219C8.01001 24.6219 8.04484 26.3458 10.2215 26.5547V27.5821V27.9303V29.4279C10.2215 29.4279 10.413 30.2811 11.0921 30.2811H11.9105C12.5896 30.2811 12.7812 29.4279 12.7812 29.4279V27.5821V26.5547H16.5772H18.3011V26.5373Z" fill="white"/>
<path d="M10.6741 22.7065C11.3707 22.7065 11.9627 22.1492 11.9627 21.4527C11.9627 20.7388 11.3707 20.1816 10.6741 20.1816C9.9602 20.1816 9.36816 20.7388 9.36816 21.4527C9.36816 22.1492 9.9602 22.7065 10.6741 22.7065Z" fill="#201658"/>
<path d="M24.2214 22.7065C23.5075 22.7065 22.9329 22.1492 22.9329 21.4527C22.9329 20.7388 23.5249 20.1816 24.2214 20.1816C24.9179 20.1816 25.5274 20.7388 25.5274 21.4527C25.51 22.1492 24.9179 22.7065 24.2214 22.7065Z" fill="#201658"/>
<path d="M18.5274 16.9428H24.3607C25.4577 16.9428 25.5622 15.689 25.5622 15.689C25.5622 15.689 25.301 13.0249 25.1617 11.7189C25.005 10.4129 23.8383 10.4826 23.8383 10.4826H18.4925H16.3856H11.0398C11.0398 10.4826 9.87313 10.4129 9.71642 11.7189C9.57711 13.0075 9.31592 15.689 9.31592 15.689C9.31592 15.689 9.4204 16.9428 10.5174 16.9428H16.3333H18.5274Z" fill="#201658"/>
<path d="M21.5747 9.71642C22.1493 9.71642 22.602 9.26368 22.602 8.70647C22.602 8.18408 22.1667 7.71393 21.5747 7.71393H13.3035C12.7463 7.71393 12.2936 8.16666 12.2936 8.70647C12.2936 9.28109 12.7463 9.71642 13.3035 9.71642H21.5747Z" fill="#201658"/>
</svg>
